<?xml version="1.0" encoding="utf-8"?>
<!-- Generator: Adobe Illustrator 16.0.4, SVG Export Plug-In . SVG Version: 6.00 Build 0)  -->
<!DOCTYPE svg PUBLIC "-//W3C//DTD SVG 1.1//EN" "http://www.w3.org/Graphics/SVG/1.1/DTD/svg11.dtd">
<svg version="1.1" xmlns="http://www.w3.org/2000/svg" xmlns:xlink="http://www.w3.org/1999/xlink" x="0px" y="0px" width="960px"
	 height="640px" viewBox="0 0 960 640" enable-background="new 0 0 960 640" xml:space="preserve">
<g id="picture" display="none">
</g>
<g id="sand-pic">
</g>
<g id="sand-pic2">
	<g>
		<g>
			<path d="M0.53,246.53c15.812-18.442,34.233-34.168,55.786-45.514c21.893-11.525,46.109-17.833,70.382-21.931
				c16.64-2.809,33.107-4.964,49.989-5.629c15.975-0.631,31.978-0.19,47.938,0.578c31.207,1.503,62.496,5.244,93.771,3.436
				c6.673-0.385,13.292-1.333,19.792-2.885c6.218-1.484,11.422-4.621,17.067-7.52c10.814-5.552,22.944-2.395,33.555,2.154
				c21.202,9.092,38.897,25.502,56.755,39.689c17.012,13.516,35.006,26.999,57.441,28.64c14.012,1.024,28.016-2.835,41.644-5.474
				c11.917-2.309,24.107-4.441,36.163-5.902c6.037-0.731,10.619-0.497,15.768,3.188c4.688,3.354,8.468,7.15,14.238,8.611
				c13.152,3.331,27.182,2.573,40.617,2.369c12.411-0.188,24.455,0.197,36.594,2.939c7.459,1.686,14.934,3.303,22.411,4.9
				c41.089,8.773,82.325,16.883,123.587,24.801c41.842,8.029,83.735,16.133,125.85,22.631c0.945,0.146,1.352-1.3,0.398-1.447
				c-79.003-12.188-157.617-28.215-235.848-44.562c-15.789-3.299-31.73-7.943-47.732-9.979c-14.083-1.791-28.445-0.482-42.594-0.672
				c-7.158-0.096-14.301-0.642-21.323-2.07c-6.757-1.376-11.093-5.705-16.479-9.561c-7.975-5.706-19.018-2.311-27.897-0.826
				c-12.729,2.127-25.409,4.42-38.069,6.926c-15.821,3.133-31.348,4.236-46.652-1.785c-9.604-3.779-18.19-9.543-26.465-15.633
				c-18.566-13.665-35.476-29.588-55.246-41.589c-8.396-5.097-17.477-9.311-27.171-11.148c-3.555-0.674-7.935-1.356-11.51-0.626
				c-6.217,1.269-11.493,4.657-17.067,7.519c-13.5,6.931-31.16,6.292-45.943,6.169c-15.658-0.129-31.195-1.032-46.816-2.067
				c-31.964-2.118-64.023-3.91-96.005-1.089c-30.69,2.706-62.399,8.955-90.774,21.232C40.381,205.783,18.037,223.812-0.53,245.47
				C-1.156,246.199-0.1,247.266,0.53,246.53L0.53,246.53z"/>
		</g>
	</g>
</g>
<g id="plants">
</g>
<g id="sketch2-sand">
</g>
<g id="sketch-fish" display="none">
</g>
<g id="sketch-sand-bottom">
</g>
<g id="sketch-sand-top">
</g>
<g id="sketch-connector">
	<line opacity="0.3" fill="none" stroke="#B2B2B2" stroke-miterlimit="10" x1="568.116" y1="199.729" x2="571.834" y2="197.004"/>
	<line opacity="0.3" fill="none" stroke="#B2B2B2" stroke-miterlimit="10" x1="583.405" y1="198.366" x2="586.35" y2="197.004"/>
	<line opacity="0.3" fill="none" stroke="#B2B2B2" stroke-miterlimit="10" x1="598" y1="204.415" x2="601.833" y2="202.166"/>
	<line opacity="0.3" fill="none" stroke="#B2B2B2" stroke-miterlimit="10" x1="609.29" y1="203.29" x2="611.5" y2="201.82"/>
	<path opacity="0.3" fill="none" stroke="#B2B2B2" stroke-miterlimit="10" d="M623.167,207.324c-0.196,1.816,2,0.175,2,0.175"/>
</g>
<g id="sketch-surface">
</g>
<g id="sand_low_2nd">
</g>
<g id="sand_low">
</g>
<g id="surface">
</g>
<g id="sand_top">
</g>
<g id="surface_in_the_back">
</g>
<g id="eels">
</g>
</svg>
