<svg width="960" height="640" viewBox="0 0 960 640" fill="none" xmlns="http://www.w3.org/2000/svg">
<g opacity="0.7">
<path d="M320.576 298.677C370.452 272.469 421.037 248.744 475.296 232.989C531.041 216.801 588.313 209.968 646.256 209.832C698.402 209.71 750.889 207.282 802.352 198.426C836.412 192.566 870.205 183.585 901.506 168.72C923.055 158.486 943.908 145.281 961.332 128.908C962.59 127.727 959.799 125.858 958.668 126.762C937.531 143.637 915.698 158.403 890.854 169.358C857.402 184.107 821.368 192.331 785.325 197.671C761.005 201.275 736.487 203.461 711.948 204.873C682.222 206.584 652.512 206.298 622.767 207.047C566.558 208.464 510.811 218.211 457.28 235.327C409.35 250.652 362.498 271.633 319.267 297.411C318.538 297.844 319.967 298.997 320.576 298.677Z" fill="#C8C8C8"/>
<path d="M0.723937 285.738C54.4079 265.922 112.75 262.84 169.311 267.936C197.604 270.486 225.684 275.253 253.391 281.469C281.346 287.741 308.518 296.429 336.02 304.347C396.432 321.74 458.264 334.13 520.686 341.544C572.704 347.722 625.532 350.951 677.918 349.12C705.763 348.147 733.595 346.456 761.373 344.333C774.088 343.361 786.8 342.274 799.473 340.847C807.223 339.974 815.17 339.201 822.681 336.997C824.592 336.436 821.894 333.928 820.433 334.356C808.655 337.809 795.397 338.168 783.254 339.297C763.746 341.112 744.19 342.436 724.633 343.6C682.812 346.088 641.337 347.059 599.445 345.068C536.257 342.063 473.351 333.746 411.506 320.478C380 313.719 348.807 305.538 317.968 296.206C292.092 288.376 266.079 281.311 239.586 275.868C161.067 259.735 75.4629 255.155 -0.724063 284.036C-1.94706 284.502 -0.199063 286.078 0.723937 285.738Z" fill="#828282"/>
<path d="M2.56898 466.393C61.425 453.343 121.427 443.794 181.025 458.11C210.482 465.186 238.349 477.94 266.644 488.523C294.517 498.949 322.992 508.194 352.47 512.78C366.8 515.009 381.349 515.848 395.837 515.19C410.702 514.514 424.969 511.345 439.331 507.682C469.372 500.018 499.325 491.332 530.302 488.36C593.162 482.329 654.581 499.366 713.091 520.777C735.111 528.835 756.675 538.055 778.691 546.128C799.963 553.929 821.42 561.235 842.955 568.274C879.318 580.161 916.268 592.704 953.887 600.042C955.739 600.403 957.598 600.711 959.458 601.021C964.162 601.805 961.481 596.195 958.21 595.65C943.662 593.225 929.287 588.904 915.111 584.921C894.216 579.05 873.472 572.645 852.809 566.009C830.977 558.997 809.247 551.661 787.662 543.921C767.008 536.514 746.764 528.154 726.291 520.282C669.447 498.428 609.16 479.964 547.649 481.594C517.125 482.403 487.412 489.003 457.978 496.664C442.939 500.578 427.922 505.199 412.595 507.84C397.624 510.42 382.324 510.707 367.204 509.532C336.924 507.178 307.503 498.373 279.008 488.283C250.599 478.224 222.968 465.614 194.052 457.056C166.409 448.874 137.662 445.423 108.875 446.083C80.028 446.745 51.452 451.66 23.28 457.595C15.358 459.265 7.45998 461.051 -0.430018 462.87C-2.98402 463.461 0.626982 466.822 2.56898 466.393Z" fill="#5A5A5A"/>
<path d="M123.281 449.033C145.89 435.098 167.813 420.263 191.969 409.041C217.299 397.273 244.116 390.766 271.586 386.297C333.615 376.205 397.919 375.931 460.193 383.928C492.13 388.029 523.788 394.014 555.688 398.364C586.196 402.522 617.549 405.567 648.3 402.471C675.637 399.719 701.883 391.194 727.074 380.532C746.188 372.44 764.543 362.733 783.569 354.466C839.66 330.096 900.406 320.23 961.353 320.763C965.447 320.799 961.373 315.753 958.642 315.693C907.683 314.568 856.472 321.824 808.189 338.306C767.709 352.125 731.031 374.82 690.189 387.757C630.238 406.747 567.402 395.524 506.772 385.918C475.261 380.927 443.755 376.286 411.866 374.628C381.074 373.026 350.184 373.366 319.443 375.75C281.994 378.654 243.556 383.974 208.15 396.981C176.642 408.555 147.435 426.864 120.716 446.967C119.389 447.968 122.139 449.737 123.281 449.033Z" fill="#5A5A5A"/>
</g>
</svg>
