<?xml version="1.0" encoding="utf-8"?>
<!-- Generator: Adobe Illustrator 16.0.4, SVG Export Plug-In . SVG Version: 6.00 Build 0)  -->
<!DOCTYPE svg PUBLIC "-//W3C//DTD SVG 1.1//EN" "http://www.w3.org/Graphics/SVG/1.1/DTD/svg11.dtd">
<svg version="1.1" xmlns="http://www.w3.org/2000/svg" xmlns:xlink="http://www.w3.org/1999/xlink" x="0px" y="0px" width="960px"
	 height="640px" viewBox="0 0 960 640" enable-background="new 0 0 960 640" xml:space="preserve">
<g id="picture" display="none">
</g>
<g id="sand-pic">
</g>
<g id="sand-pic2">
	<g>
		<path fill="#FFFFFF" d="M1,639V367.823c8.397-6.97,15.074-13.254,21.534-19.333c15.471-14.561,27.691-26.061,52.916-36.571
			c18.984-7.301,126.066-15.987,139.985-15.987c38.312,0,83.981,2.943,105.332,4.922c34.412,3.188,46.624,18.982,60.764,37.271
			c8.562,11.073,17.415,22.524,32.06,32.663c8.285,5.523,23.699,10.996,40.019,16.791c28.778,10.219,61.382,21.794,68.391,37.542
			V639H1z"/>
		<path d="M215.436,296.932c38.277,0,83.908,2.94,105.239,4.918c33.979,3.146,46.068,18.782,60.065,36.887
			c8.607,11.133,17.51,22.646,32.311,32.893c8.373,5.582,23.845,11.076,40.224,16.892c28.472,10.109,60.712,21.557,67.726,36.815
			V638H2V368.293c8.252-6.871,14.841-13.072,21.219-19.074c15.392-14.485,27.551-25.928,52.589-36.365
			C94.805,305.574,201.549,296.932,215.436,296.932 M215.436,294.932c-12.816,0-120.871,8.565-140.37,16.064
			C39.067,325.995,29,343.354,0,367.354V640h523V424.91c-11-25.498-86.34-39.945-108.84-54.945
			c-38.998-26.998-37.79-64.965-93.301-70.107C299.476,297.876,253.436,294.932,215.436,294.932L215.436,294.932z"/>
	</g>
	<g>
		<path fill="#FFFFFF" d="M132.214,638c7.169-47.481,79.841-82.739,124.576-93.938c2.247-0.372,5.008-0.703,7.931-1.055
			c8.76-1.051,19.661-2.359,25.525-5.879l0.158-0.095l0.131-0.131c3.796-3.795,5.276-9.949,6.843-16.465
			c1.043-4.337,2.122-8.821,3.923-12.423l0.032-0.064l0.026-0.068c7.264-18.886,18.894-26.286,34.989-36.527l0.383-0.243
			c11.653-6.886,22.4-16.688,32.793-26.169c19.784-18.047,38.472-35.094,63.834-35.094c28.054,0,58.033,6.277,89.773,12.924
			c34.577,7.24,70.331,14.727,106.778,14.727c19.821,0,45.39-15.599,72.459-32.112c15.805-9.643,32.148-19.613,48.396-27.197
			c18.294-8.539,33.745-12.69,47.235-12.69c6.189,0,22.796,7.828,38.855,15.397c18.147,8.555,36.913,17.4,45.609,17.603
			C924.86,399.485,959,430.762,959,456v182H132.214z"/>
		<path d="M798,367c5.854,0,23.047,8.104,38.216,15.254c19.13,9.019,37.2,17.535,46.214,17.745
			c19.365,0.45,38.049,7.353,53.064,19.433C949.117,430.393,957,444.063,957,456v181H133.986c8.528-46,79.292-80.234,123.107-91.217
			c2.204-0.363,4.926-0.814,7.806-1.16c9.364-1.125,19.979-2.461,26.119-6.146l0.316-0.222l0.261-0.275
			c4.095-4.095,5.694-10.752,7.241-17.184c1.022-4.255,2.081-8.658,3.806-12.106l0.064-0.132l0.052-0.136
			c7.087-18.426,18.542-25.714,34.396-35.802l0.34-0.217c11.813-6.988,22.604-16.832,33.041-26.353
			c19.563-17.846,38.043-34.702,62.823-34.702c27.898,0,57.804,6.262,89.466,12.892C557.477,431.497,593.308,439,629.91,439
			c20.243,0,45.985-15.705,73.24-32.332C733.627,388.074,768.171,367,798,367 M798,364c-57,0-126.09,72-168.09,72
			c-69.66,0-137.662-27.65-196.552-27.65c-39.938,0-64.435,41.998-97.433,61.497c-16.499,10.499-28.467,17.999-35.967,37.498
			c-4.5,8.999-4.484,22.499-10.484,28.498c-7.499,4.5-23.99,5.5-32.99,7C214.486,553.342,136.498,589,130.499,640H960V456
			c0-26.08-34.75-58-77.75-59C866.03,396.623,811.499,364,798,364L798,364z"/>
	</g>
</g>
<g id="plants">
</g>
<g id="sketch2-sand">
	<ellipse cx="313" cy="387.75" rx="17" ry="8.25"/>
	<ellipse stroke="#FFFFFF" stroke-miterlimit="10" cx="626" cy="539.75" rx="17" ry="8.25"/>
	<ellipse stroke="#FFFFFF" stroke-miterlimit="10" cx="417" cy="491.75" rx="17" ry="8.25"/>
	<ellipse stroke="#FFFFFF" stroke-miterlimit="10" cx="124" cy="365.75" rx="17" ry="8.25"/>
</g>
<g id="sketch-fish" display="none">
</g>
<g id="sketch-sand-bottom">
</g>
<g id="sketch-sand-top">
</g>
<g id="sketch-connector">
	<line opacity="0.3" fill="none" stroke="#B2B2B2" stroke-miterlimit="10" x1="568.116" y1="199.729" x2="571.834" y2="197.004"/>
	<line opacity="0.3" fill="none" stroke="#B2B2B2" stroke-miterlimit="10" x1="583.405" y1="198.366" x2="586.35" y2="197.004"/>
	<line opacity="0.3" fill="none" stroke="#B2B2B2" stroke-miterlimit="10" x1="598" y1="204.415" x2="601.833" y2="202.166"/>
	<line opacity="0.3" fill="none" stroke="#B2B2B2" stroke-miterlimit="10" x1="609.29" y1="203.29" x2="611.5" y2="201.82"/>
	<path opacity="0.3" fill="none" stroke="#B2B2B2" stroke-miterlimit="10" d="M623.167,207.324c-0.196,1.816,2,0.175,2,0.175"/>
</g>
<g id="sketch-surface">
</g>
<g id="sand_low_2nd">
</g>
<g id="sand_low">
</g>
<g id="surface">
</g>
<g id="sand_top">
</g>
<g id="surface_in_the_back">
</g>
<g id="eels">
</g>
</svg>
