<svg enable-background="new 0 0 960 640" height="640" viewBox="0 0 960 640" width="960" xmlns="http://www.w3.org/2000/svg"><path d="m1.766 243.578c15.059-17.586 32.103-33.233 52.611-44.229 20.813-11.16 44.093-16.729 67.222-20.625 16.673-2.811 33.173-4.977 50.089-5.643 15.975-.631 31.978-.19 47.938.578 31.206 1.503 62.495 5.244 93.77 3.436 6.64-.383 13.224-1.327 19.692-2.871 6.188-1.479 11.359-4.598 16.978-7.482 10.952-5.622 23.188-2.451 33.934 2.155 21.23 9.103 38.949 25.54 56.831 39.747 16.926 13.447 34.853 26.898 57.176 28.53 13.98 1.022 27.947-2.827 41.544-5.461 11.95-2.314 24.174-4.45 36.263-5.915 6.094-.738 10.76-.48 15.957 3.239 4.658 3.333 8.414 7.122 14.148 8.573 13.119 3.322 27.116 2.559 40.517 2.355 12.445-.189 24.522.203 36.694 2.953 7.459 1.686 14.933 3.303 22.411 4.899 41.089 8.774 82.324 16.884 123.587 24.802 41.842 8.028 83.735 16.133 125.85 22.631.473.072.676-.65.199-.725-79.003-12.188-157.617-28.214-235.848-44.562-15.756-3.292-31.666-7.934-47.633-9.965-14.083-1.791-28.445-.482-42.594-.672-7.191-.096-14.368-.648-21.423-2.084-6.795-1.383-11.154-5.723-16.569-9.598-7.883-5.641-18.831-2.256-27.608-.789-12.729 2.127-25.408 4.42-38.069 6.926-15.884 3.146-31.485 4.261-46.852-1.785-9.637-3.792-18.251-9.559-26.555-15.67-18.566-13.666-35.476-29.588-55.246-41.59-8.371-5.08-17.415-9.277-27.081-11.109-3.487-.662-7.804-1.344-11.311-.627-6.187 1.263-11.431 4.633-16.978 7.481-13.566 6.964-31.274 6.344-46.133 6.22-15.658-.129-31.195-1.032-46.816-2.067-31.964-2.118-64.023-3.91-96.005-1.089-17.013 1.5-33.995 4.544-50.659 8.248-12.84 2.854-25.455 6.699-37.527 11.941-25.005 10.855-45.451 28.777-63.035 49.311-.313.367.215.9.531.533z"/><path d="m516.5 437.91c-11-25.498-86.09-39.945-108.59-54.945-38.998-26.998-37.665-64.965-93.176-70.107-21.384-1.981-67.361-4.926-105.361-4.926-12.816 0-121.09 8.565-140.589 16.064-35.998 14.999-46.284 32.358-75.284 56.358v273.146h523z" fill="none" stroke="#000" stroke-miterlimit="10"/><path d="m968.5 458.607c0-27.104-35.278-60.274-78.869-61.313-16.443-.392-71.875-34.294-85.56-34.294-57.783 0-127.771 74.822-170.349 74.822-70.617 0-139.528-28.734-199.228-28.734-40.487 0-65.308 43.645-98.759 63.908-16.726 10.911-28.852 18.705-36.455 38.969-4.562 9.352-4.542 23.381-10.625 29.615-7.602 4.676-24.318 5.555-33.441 7.114-42.575 10.911-121.634 47.806-127.715 100.806h841.001z" fill="#fff" stroke="#000" stroke-miterlimit="10"/><ellipse cx="313" cy="387.75" rx="17" ry="8.25"/><g stroke-miterlimit="10"><ellipse cx="626" cy="539.75" rx="17" ry="8.25" stroke="#fff"/><ellipse cx="417" cy="511.75" rx="17" ry="8.25" stroke="#fff"/><ellipse cx="124" cy="365.75" rx="17" ry="8.25" stroke="#fff"/><path d="m568.116 199.729 3.718-2.725" fill="none" opacity=".3" stroke="#b2b2b2"/><path d="m583.405 198.366 2.945-1.362" fill="none" opacity=".3" stroke="#b2b2b2"/><path d="m598 204.415 3.833-2.249" fill="none" opacity=".3" stroke="#b2b2b2"/><path d="m609.29 203.29 2.21-1.47" fill="none" opacity=".3" stroke="#b2b2b2"/><path d="m623.167 207.324c-.196 1.816 2 .175 2 .175" fill="none" opacity=".3" stroke="#b2b2b2"/></g></svg>