<svg width="960" height="640" viewBox="0 0 960 640" fill="none" xmlns="http://www.w3.org/2000/svg">
<path d="M531.885 381.22C531.885 421.315 594.859 415.189 594.859 451.943C594.859 468.093 577.026 484.242 553.62 484.242C550.276 484.242 548.047 486.47 548.047 489.811C548.047 493.152 550.276 495.38 553.62 495.38C580.927 495.38 606.005 477.56 606.005 448.602C606.005 406.836 543.589 411.291 543.589 378.992C543.589 366.184 558.078 351.705 572.568 351.705C575.911 351.705 578.141 349.478 578.141 346.136C578.141 342.238 575.911 340.011 572.568 340.011C553.063 340.011 531.885 356.717 531.885 381.22ZM496.776 337.783C496.776 387.902 501.234 469.763 506.25 474.775C509.036 477.56 543.031 465.308 554.734 462.524C556.964 461.967 558.635 459.183 557.521 455.841C556.406 452.5 554.177 450.829 551.391 451.943C540.245 456.398 516.839 463.081 515.724 462.524C514.609 461.967 511.266 438.578 509.594 410.734C507.922 385.118 507.922 356.16 507.922 337.783C507.922 334.442 505.693 332.215 502.349 332.215C499.005 332.215 496.776 334.442 496.776 337.783ZM448.292 400.154C448.292 417.974 468.354 425.77 468.354 449.716C468.354 469.763 448.849 486.47 448.849 518.768C448.849 542.714 472.813 558.864 487.859 548.84C491.203 546.612 491.203 543.828 489.531 541.044C487.859 538.259 483.958 537.702 481.172 539.373C475.042 543.271 459.995 533.804 459.995 515.427C459.995 499.278 479.5 468.093 479.5 448.045C479.5 422.986 459.438 415.189 459.438 398.483C459.438 387.902 467.24 369.525 476.156 357.831C477.828 355.603 479.5 352.262 476.714 349.478C473.927 346.693 471.141 346.136 468.911 348.364C456.651 360.615 448.292 386.789 448.292 400.154ZM393.12 481.458C393.12 494.823 402.594 503.733 428.786 503.733C432.13 503.733 434.359 501.505 434.359 498.164C434.359 494.823 432.13 492.595 428.786 492.595C413.74 492.595 404.266 492.038 404.266 479.23C404.266 463.081 429.344 438.578 429.344 420.758C429.344 405.165 405.38 403.495 405.38 388.459C405.38 375.094 423.214 355.603 437.703 341.125C441.047 337.783 439.932 334.999 437.703 332.771C436.031 331.101 432.13 331.101 429.901 333.328C412.068 351.148 394.234 367.855 394.234 388.459C394.234 409.62 418.198 411.848 418.198 422.429C418.198 439.135 393.12 455.284 393.12 481.458ZM334.047 351.148C331.818 363.4 336.276 389.573 336.276 411.291C336.276 414.632 338.505 416.86 341.849 416.86C345.193 416.86 347.422 414.632 347.422 411.291C347.422 392.357 344.635 358.945 345.75 353.376C348.536 350.035 355.224 347.807 363.026 347.807C366.37 347.807 368.042 345.58 368.042 342.238C368.042 338.897 365.813 336.67 362.469 336.67C345.193 336.67 335.719 341.125 334.047 351.148ZM339.62 368.968C336.833 368.968 337.948 378.992 341.292 378.992C350.208 378.992 361.911 371.753 371.385 371.753C374.729 371.753 376.958 369.525 376.958 366.184C376.958 362.843 374.729 360.615 371.385 360.615C359.125 360.615 351.323 368.968 339.62 368.968ZM285.563 373.423C285.563 385.118 294.479 392.357 303.953 392.357C319.557 392.357 329.589 381.22 329.589 363.4C329.589 341.681 322.344 338.897 315.656 338.897C312.313 338.897 310.083 341.125 310.083 344.466C310.083 347.25 311.755 350.035 313.984 350.035C316.771 350.035 318.443 354.49 318.443 363.957C318.443 374.537 312.87 381.22 305.068 381.22C300.609 381.22 296.708 376.765 296.708 371.196C296.708 365.07 302.839 356.16 307.854 356.16C308.969 356.16 311.755 355.603 311.755 351.148C311.755 347.807 309.526 345.58 306.182 345.58C295.036 345.58 285.563 358.945 285.563 373.423ZM691.828 204.133C690.714 239.216 692.385 279.311 697.958 311.61C698.516 314.951 701.302 317.736 704.646 317.179C707.99 316.622 709.661 313.838 709.104 311.053C702.417 277.641 702.974 239.773 702.974 200.235C702.974 180.744 707.99 112.248 707.99 112.248C707.99 110.02 706.875 106.679 702.417 106.679C699.073 106.679 696.844 108.907 696.844 112.248C696.844 127.284 693.5 151.229 691.828 204.133ZM643.901 316.065C643.901 319.963 646.688 321.634 649.474 321.634C652.818 321.634 655.047 319.406 655.047 316.065C655.047 286.551 657.276 254.252 657.276 221.953C657.276 175.175 659.505 151.229 659.505 123.942C659.505 120.601 657.276 118.374 653.932 118.374C650.589 118.374 648.359 120.601 648.359 123.942C648.359 157.355 647.802 189.654 647.245 221.953C646.688 255.922 643.901 281.539 643.901 316.065ZM574.797 291.006C574.797 307.712 587.615 322.748 600.99 331.658C602.661 332.771 607.12 333.885 609.906 331.101C612.135 328.873 611.578 325.532 608.792 323.304C597.646 314.394 585.943 302.7 585.943 291.006C585.943 266.503 616.036 254.252 616.036 217.498C616.036 200.791 598.203 179.63 598.203 156.798C598.203 142.319 606.563 125.613 628.854 111.134C633.87 107.793 634.984 105.565 632.755 102.224C630.526 98.8828 627.74 98.8828 623.281 101.667C599.318 116.703 587.057 138.978 587.057 155.684C587.057 181.301 604.891 196.893 604.891 220.839C604.891 251.467 574.797 258.15 574.797 291.006ZM500.677 272.629C500.12 275.413 500.677 279.868 505.135 280.425C508.479 280.982 510.708 278.754 511.266 275.413C512.38 267.617 515.167 252.024 517.953 215.27C519.625 194.109 520.182 127.84 526.87 127.84C535.229 127.84 544.146 135.637 548.604 151.229C552.505 165.708 552.505 186.869 550.833 210.258C546.375 269.844 534.115 280.982 520.74 280.982C516.281 280.982 514.609 283.766 514.609 286.551C514.609 289.335 516.281 292.119 520.74 292.119C547.49 292.119 559.193 268.73 562.536 207.474C563.651 186.869 565.323 160.696 559.193 143.99C552.505 125.613 538.573 116.146 525.198 116.146C506.25 116.146 510.151 171.277 506.25 214.156C504.021 238.659 503.464 258.15 500.677 272.629ZM422.099 303.814C422.099 306.598 423.771 309.383 426.557 309.939C429.901 310.496 432.688 309.383 433.245 306.041C437.146 283.766 436.031 277.084 437.146 264.275C438.818 245.898 438.818 225.851 440.49 207.474C444.948 159.582 453.307 126.17 462.781 126.17C468.911 126.17 475.599 142.319 475.599 155.684C475.599 180.187 447.734 198.007 447.734 223.067C447.734 236.432 448.849 255.922 456.651 277.084C461.667 291.006 470.026 305.484 480.615 312.167C483.401 313.838 487.859 313.838 489.531 310.496C491.203 307.155 490.089 304.927 486.188 302.143C480.057 297.688 471.698 286.551 466.125 271.515C459.438 253.695 458.323 234.204 458.323 223.067C458.323 201.348 486.745 181.858 486.745 155.127C486.745 136.751 475.599 113.919 463.339 113.919C436.589 113.919 431.016 185.756 429.344 206.917C428.229 219.725 427.672 243.671 426 264.832C424.885 278.754 423.771 293.79 422.099 303.814ZM254.911 277.641C257.141 297.688 264.943 313.281 282.219 313.281C293.922 313.281 305.625 299.359 316.214 267.617C325.13 241.443 327.359 221.396 317.885 213.043C312.87 208.588 301.167 208.588 287.792 208.588C285.005 208.588 282.776 211.372 282.776 214.156C282.776 216.941 285.005 219.725 288.349 219.725C295.594 219.725 307.297 219.168 310.083 223.067C313.984 228.078 313.984 239.216 305.625 264.275C297.823 288.221 289.464 301.586 282.219 301.586C272.745 301.586 268.286 291.006 266.057 274.299C261.599 239.773 264.943 192.995 277.76 159.582C284.448 141.762 295.036 125.613 306.182 125.613C315.656 125.613 324.016 131.739 332.375 137.864C334.604 139.535 338.505 138.421 340.177 136.194C341.849 133.966 341.849 130.625 339.62 128.954C332.932 123.942 319 114.475 306.74 114.475C289.464 114.475 276.089 132.852 267.172 155.127C252.682 191.325 250.453 237.545 254.911 277.641ZM650.589 152.343C652.26 171.834 660.62 209.701 667.307 226.965C673.438 242.557 683.469 263.162 696.286 280.425C702.417 288.778 702.974 270.401 699.073 265.389C691.271 255.365 684.583 240.33 676.781 219.168C670.094 200.791 658.391 162.924 658.391 144.547C658.391 133.966 650.031 145.104 650.589 152.343ZM347.422 224.18C360.797 224.18 384.76 209.701 395.906 209.701C400.922 209.701 401.479 199.121 397.021 199.121C382.531 199.121 364.141 211.372 350.766 213.043C346.307 213.6 343.521 224.18 347.422 224.18ZM342.406 299.359C344.635 277.084 346.865 260.377 349.651 240.33C354.109 209.145 358.568 183.528 365.813 161.81C369.714 150.116 377.516 132.852 384.203 132.852C389.776 132.852 392.563 141.206 394.234 154.571C395.349 163.481 396.464 185.756 395.349 211.372C393.677 246.455 389.776 286.551 386.99 304.928C385.875 311.61 398.693 312.724 399.25 307.155C403.708 260.377 409.281 191.881 405.38 151.786C403.151 128.397 395.906 118.93 385.318 118.93C374.729 118.93 365.255 132.295 358.568 150.116C348.536 176.289 341.849 213.043 337.948 239.216C335.719 254.252 333.49 277.084 330.703 294.904C329.589 302.143 341.849 304.371 342.406 299.359Z" fill="black"/>
</svg>
